HIERARCHY
ROOT root
{
	OFFSET 0.000000 0.000000 0.000000
	CHANNELS 6 Xposition Yposition Zposition Zrotation Yrotation Xrotation
	JOINT lhip
	{
		OFFSET 0.058581 -0.082280 -0.017664
		CHANNELS 3 Zrotation Yrotation Xrotation
		JOINT lknee
		{
			OFFSET 0.043451 -0.386469 0.008037
			CHANNELS 3 Zrotation Yrotation Xrotation
			JOINT lankle
			{
				OFFSET -0.014790 -0.426874 -0.037428
				CHANNELS 3 Zrotation Yrotation Xrotation
				JOINT ltoe
				{
					OFFSET 0.041054 -0.060286 0.122042
					CHANNELS 3 Zrotation Yrotation Xrotation
					End Site
					{
						OFFSET 0.000000 0.000000 0.000000
					}
				}
			}
		}
	}
	JOINT rhip
	{
		OFFSET -0.060310 -0.090513 -0.013543
		CHANNELS 3 Zrotation Yrotation Xrotation
		JOINT rknee
		{
			OFFSET -0.043257 -0.383688 -0.004843
			CHANNELS 3 Zrotation Yrotation Xrotation
			JOINT rankle
			{
				OFFSET 0.019056 -0.420046 -0.034562
				CHANNELS 3 Zrotation Yrotation Xrotation
				JOINT rtoe
				{
					OFFSET -0.034840 -0.062106 0.130323
					CHANNELS 3 Zrotation Yrotation Xrotation
					End Site
					{
						OFFSET 0.000000 0.000000 0.000000
					}
				}
			}
		}
	}
	JOINT lowerback
	{
		OFFSET 0.004439 0.124404 -0.038385
		CHANNELS 3 Zrotation Yrotation Xrotation
		JOINT upperback
		{
			OFFSET 0.004488 0.137956 0.026820
			CHANNELS 3 Zrotation Yrotation Xrotation
			JOINT chest
			{
				OFFSET -0.002265 0.056032 0.002855
				CHANNELS 3 Zrotation Yrotation Xrotation
				JOINT lowerneck
				{
					OFFSET -0.013390 0.211636 -0.033468
					CHANNELS 3 Zrotation Yrotation Xrotation
					JOINT upperneck
					{
						OFFSET 0.010113 0.088937 0.050410
						CHANNELS 3 Zrotation Yrotation Xrotation
						End Site
						{
							OFFSET 0.000000 0.000000 0.000000
						}
					}
				}
				JOINT lclavicle
				{
					OFFSET 0.071702 0.114000 -0.018898
					CHANNELS 3 Zrotation Yrotation Xrotation
					JOINT lshoulder
					{
						OFFSET 0.122921 0.045205 -0.019046
						CHANNELS 3 Zrotation Yrotation Xrotation
						JOINT lelbow
						{
							OFFSET 0.255332 -0.015649 -0.022946
							CHANNELS 3 Zrotation Yrotation Xrotation
							JOINT lwrist
							{
								OFFSET 0.265709 0.012698 -0.007375
								CHANNELS 3 Zrotation Yrotation Xrotation
								End Site
								{
									OFFSET 0.000000 0.000000 0.000000
								}
							}
						}
					}
				}
				JOINT rclavicle
				{
					OFFSET -0.082954 0.112472 -0.023707
					CHANNELS 3 Zrotation Yrotation Xrotation
					JOINT rshoulder
					{
						OFFSET -0.113228 0.046853 -0.008472
						CHANNELS 3 Zrotation Yrotation Xrotation
						JOINT relbow
						{
							OFFSET -0.260127 -0.014369 -0.031269
							CHANNELS 3 Zrotation Yrotation Xrotation
							JOINT rwrist
							{
								OFFSET -0.269108 0.006794 -0.006027
								CHANNELS 3 Zrotation Yrotation Xrotation
								End Site
								{
									OFFSET 0.000000 0.000000 0.000000
								}
							}
						}
					}
				}
			}
		}
	}
}
MOTION
Frames: 10
Frame Time: 0.033333
1.180888 0.168679 0.986164 -88.630502 2.909971 86.662841 0.010927 -0.297827 6.615459 -2.814766 -15.273657 1.975523 5.851558 10.014357 -17.494943 0.000000 -0.000000 0.000000 3.929098 -1.555415 2.509212 4.138393 3.324973 7.291586 1.949173 -3.380195 -12.178533 0.000000 -0.000000 0.000000 -2.512517 1.955855 4.741664 2.714456 -2.390078 2.760787 1.659047 -2.134405 5.455671 6.511556 -1.332977 10.195189 3.002077 -4.070996 13.115383 -24.454946 6.019603 4.153735 -63.631384 -6.920805 8.881491 10.382969 -27.372617 4.627181 -1.904862 -1.670841 -9.234112 22.534386 -5.546874 3.020704 63.642513 0.024661 11.146095 -15.209648 28.268283 -3.080396 7.213910 0.661510 -11.517844 
1.181188 0.168685 0.986208 -88.613241 2.904278 86.668277 0.004798 -0.333868 6.563594 -2.825981 -15.263847 2.011226 5.896254 10.011737 -17.378818 0.000000 -0.000000 0.000000 3.935675 -1.474592 2.474699 4.142798 3.310503 7.293867 2.072232 -3.461233 -12.163381 0.000000 -0.000000 0.000000 -2.567012 1.914441 4.774129 2.752056 -2.362109 2.722750 1.691134 -2.199671 5.480894 6.448736 -1.199652 10.482947 2.867359 -3.770366 13.380574 -24.348784 5.994727 4.150607 -63.863187 -7.053621 8.983531 10.504238 -27.245996 4.628230 -1.948169 -1.539819 -9.610959 22.409536 -5.729315 3.003601 63.783980 0.042208 11.283214 -15.230293 28.361939 -2.892223 7.330270 0.672006 -11.639977 
1.181542 0.168531 0.986218 -88.583684 2.879713 86.634877 -0.035947 -0.377049 6.577069 -2.826253 -15.249336 1.961621 5.867242 10.070891 -17.438262 0.000000 -0.000000 0.000000 3.877228 -1.476572 2.428631 4.155453 3.254185 7.355759 2.163968 -3.488703 -12.189369 0.000000 -0.000000 0.000000 -2.553130 1.910976 4.861569 2.749745 -2.389733 2.811496 1.671169 -2.253746 5.420761 6.442179 -1.143482 10.357098 2.840520 -3.802452 13.421881 -24.439552 5.862752 4.053266 -63.742783 -7.124609 8.985342 10.521123 -27.168473 4.465389 -1.846860 -1.660903 -9.440418 22.418392 -5.648046 2.974991 63.829733 0.018267 11.330306 -15.254912 28.317309 -2.894812 7.416329 0.546765 -11.490986 
1.181643 0.168730 0.986216 -88.680116 2.911534 86.658256 0.005687 -0.300519 6.526770 -2.825402 -15.266957 2.003996 5.892427 10.070000 -17.415773 0.000000 -0.000000 0.000000 3.929592 -1.464002 2.407641 4.150281 3.265057 7.303704 2.153220 -3.404745 -12.121068 0.000000 -0.000000 0.000000 -2.562795 1.869210 4.854037 2.798261 -2.390377 2.824126 1.681111 -2.278892 5.448228 6.608429 -1.662903 10.186398 3.134158 -4.301579 13.345027 -24.411274 5.909136 4.138176 -63.829343 -7.065763 9.008277 10.532819 -27.497277 4.639590 -2.068829 -1.221688 -9.732358 22.392752 -5.661196 2.942031 63.896461 -0.037932 11.233840 -15.250477 28.331565 -2.804889 7.476378 0.429717 -11.479411 
1.182232 0.168574 0.986295 -88.738150 2.920011 86.668473 -0.016224 -0.297618 6.439352 -2.811998 -15.124772 2.052778 5.891296 10.095580 -17.381457 0.000000 -0.000000 0.000000 3.919851 -1.393159 2.282317 4.168454 3.242500 7.429460 2.236429 -3.376644 -12.125181 0.000000 -0.000000 0.000000 -2.537753 1.832425 4.989355 2.804820 -2.366886 2.762395 1.661825 -2.283140 5.461325 6.616692 -1.467390 10.248926 2.986998 -4.101594 13.502889 -24.440675 5.933792 4.095775 -63.784931 -7.143698 9.039113 10.496551 -27.487316 4.603224 -1.998300 -1.368941 -9.597560 22.420483 -5.750555 2.855742 63.868339 0.068581 11.290203 -15.174473 28.131385 -2.842722 7.388486 0.569624 -11.448534 
1.182661 0.168327 0.986305 -88.870672 2.914790 86.725215 -0.084380 -0.265942 6.331498 -2.774145 -15.145882 2.128789 5.935796 10.182199 -17.492245 0.000000 -0.000000 0.000000 3.845960 -1.445955 2.243094 4.233515 3.364938 7.307370 2.317112 -3.293373 -11.965379 0.000000 -0.000000 0.000000 -2.507901 1.891447 4.917517 2.803496 -2.415074 2.862514 1.645879 -2.293255 5.505970 6.568884 -1.732915 10.275443 2.857658 -4.288510 13.485621 -24.412904 5.953885 4.054937 -63.853145 -7.218035 9.054028 10.477352 -27.432310 4.728986 -2.012437 -1.159395 -9.432209 22.475547 -5.769959 2.851023 63.817022 0.101712 11.246584 -15.181497 28.129891 -2.895626 7.396794 0.588029 -11.375819 
1.183313 0.168159 0.986349 -89.040822 2.949758 86.760555 -0.095827 -0.239821 6.229545 -2.724101 -14.991223 2.145422 5.947208 10.169537 -17.393716 0.000000 -0.000000 0.000000 3.823885 -1.426596 2.131903 4.296496 3.406438 7.308716 2.378876 -3.197912 -11.913682 0.000000 -0.000000 0.000000 -2.511031 1.867115 5.059464 2.825962 -2.416526 2.814144 1.682426 -2.239987 5.495669 6.609822 -1.798930 10.156778 2.939963 -4.504527 13.568560 -24.439367 6.008278 3.956924 -63.883206 -7.205000 9.076488 10.447809 -27.284463 4.755387 -1.858815 -1.293179 -9.199277 22.539076 -5.745440 2.830500 63.710652 0.118985 11.292861 -15.232741 28.092586 -2.847423 7.293445 0.694546 -11.125281 
1.184341 0.167958 0.986476 -89.240848 3.001734 86.800568 -0.099830 -0.274649 6.061241 -2.718963 -14.798970 2.265413 5.927920 10.251022 -17.361876 0.000000 -0.000000 0.000000 3.781261 -1.504784 1.945490 4.398834 3.443366 7.408971 2.420183 -3.000218 -11.849560 0.000000 -0.000000 0.000000 -2.450437 1.955118 5.221298 2.861983 -2.449769 2.828875 1.675010 -2.306858 5.413046 6.769734 -2.228565 10.190024 3.140057 -4.905872 13.558036 -24.580865 5.922904 4.078412 -63.710852 -7.161713 9.049436 10.512948 -27.433992 4.505992 -1.950615 -1.402870 -8.996303 22.488444 -5.717970 2.853548 63.738145 0.132632 11.151742 -15.158835 28.012031 -2.905714 7.394744 0.487182 -11.098404 
1.184541 0.167898 0.986688 -89.551315 2.997124 86.841663 -0.121502 -0.132759 6.015226 -2.692519 -14.667448 2.266953 5.914881 10.270166 -17.364142 0.000000 -0.000000 0.000000 3.763171 -1.537427 1.869670 4.408319 3.657609 7.406352 2.535946 -2.854662 -11.790467 0.000000 -0.000000 0.000000 -2.570070 2.005106 5.090664 2.922765 -2.395044 2.959440 1.664706 -2.357284 5.746851 6.936975 -2.157633 9.685433 2.896054 -4.999389 13.476153 -24.622805 6.146504 3.681411 -63.583083 -7.147438 9.157400 10.333359 -27.280514 4.648646 -1.656221 -1.586320 -8.704887 22.594826 -5.909631 2.443244 63.631574 0.104950 11.410517 -15.045052 28.063736 -2.921017 7.145739 0.554094 -11.063826 
1.185667 0.167096 0.986822 -89.841483 3.100099 86.664025 -0.088479 -0.158125 6.048365 -2.740385 -14.555365 2.427224 5.935247 10.362881 -17.474734 0.000000 -0.000000 0.000000 3.797584 -1.632088 2.008987 4.448659 3.893508 7.297000 2.443071 -2.755128 -11.677896 0.000000 -0.000000 0.000000 -2.586332 1.949515 4.710574 2.952536 -2.629947 3.990999 1.666457 -2.181254 5.925908 6.939943 -2.244346 9.394377 2.824210 -5.257371 13.453217 -24.453988 5.852073 3.626697 -63.863931 -7.312230 9.201151 10.626290 -27.252753 4.410347 -1.558766 -1.866685 -8.978415 22.495181 -5.668429 2.383042 63.707700 0.483996 11.329851 -15.127635 28.192504 -2.926897 7.212622 0.499144 -11.001529 
